<svg width="22" height="22" viewBox="0 0 22 22" fill="none" xmlns="http://www.w3.org/2000/svg">
<path d="M3.75933 16.3281C3.81047 16.1399 3.69746 15.8782 3.58961 15.6896C3.55602 15.6334 3.5196 15.5789 3.48047 15.5263C2.55546 14.1235 2.06244 12.4801 2.0625 10.7998C2.04746 5.97652 6.04699 2.0625 10.9927 2.0625C15.3059 2.0625 18.9062 5.05055 19.7476 9.01699C19.8736 9.60506 19.9373 10.2048 19.9375 10.8062C19.9375 15.6363 16.0922 19.6118 11.1465 19.6118C10.3602 19.6118 9.29886 19.4141 8.72007 19.2521C8.14129 19.0902 7.56336 18.8753 7.41425 18.8177C7.26176 18.7591 7.09981 18.729 6.93644 18.7288C6.758 18.7281 6.58127 18.7636 6.41695 18.8332L3.50238 19.8851C3.43853 19.9126 3.37087 19.9303 3.30172 19.9375C3.24714 19.9373 3.19315 19.9263 3.14285 19.9052C3.09256 19.884 3.04697 19.853 3.00872 19.8141C2.97048 19.7752 2.94033 19.729 2.92004 19.6784C2.89975 19.6277 2.88971 19.5736 2.8905 19.519C2.89409 19.4711 2.90273 19.4237 2.91629 19.3776L3.75933 16.3281Z" stroke="black" stroke-width="1.38" stroke-miterlimit="10" stroke-linecap="round"/>
</svg>
